<?xml version="1.0" encoding="utf-8"?>
<!-- Generator: Adobe Illustrator 26.3.0, SVG Export Plug-In . SVG Version: 6.00 Build 0)  -->
<svg version="1.1" id="Layer_1" xmlns="http://www.w3.org/2000/svg" xmlns:xlink="http://www.w3.org/1999/xlink" x="0px" y="0px"
	 viewBox="0 0 191.37 45.79" style="enable-background:new 0 0 191.37 45.79;" xml:space="preserve">
<style type="text/css">
	.st0{fill:#010101;}
	.st1{fill:#805C37;}
	.st2{fill:#B09F8E;}
	.st3{fill:#9F7F5F;}
	.st4{fill:#725131;}
	.st5{fill:#8B6848;}
	.st6{fill:#A9937B;}
	.st7{fill:#3D3D3D;}
</style>
<g>
	<g>
		<path id="path34_4_" class="st0" d="M20.29,20.69V1.92c0-0.73-0.59-1.33-1.33-1.33l0,0c-0.73,0-1.32,0.59-1.32,1.32c0,0,0,0,0,0
			v18.77c0,1.28-0.66,2.46-1.74,3.14c-2.73,1.69-3.57,5.28-1.88,8.01s5.28,3.57,8.01,1.88c2.73-1.69,3.57-5.28,1.88-8.01
			c-0.46-0.75-1.09-1.38-1.84-1.85C20.97,23.17,20.3,21.98,20.29,20.69z"/>
		<path class="st1" d="M22.1,36.51c-0.96,0.39-1.99,0.6-3.04,0.61l-0.41,6.59c0.31,0,0.61,0.03,0.92,0.03
			c1.57,0,3.13-0.25,4.63-0.73L22.1,36.51z"/>
		<path class="st2" d="M10.89,31.03L10.89,31.03l-5.76,1.48c0.47,1.83,1.29,3.55,2.4,5.08L12.44,34
			C11.73,33.13,11.2,32.12,10.89,31.03z"/>
		<path class="st3" d="M27.34,28.74c0,1-0.17,1.98-0.52,2.9l6.68,2.63c0.7-1.75,1.05-3.62,1.05-5.51v-0.04L27.34,28.74z"/>
		<path class="st3" d="M11.53,16.17C9.94,17.18,8.56,18.48,7.46,20l4.88,3.54c0.69-0.88,1.55-1.61,2.52-2.15L11.53,16.17z"/>
		<path class="st2" d="M24.16,14.52l-2.06,6.41c0.95,0.39,1.82,0.95,2.56,1.65l4.44-5.37C27.63,16.01,25.96,15.1,24.16,14.52z"/>
		<path class="st4" d="M15.01,36.14v0.02l-4.71,7.53c0.96,0.6,1.98,1.11,3.04,1.5l3.2-8.4C16.01,36.63,15.5,36.41,15.01,36.14z"/>
		<path class="st5" d="M25.74,33.69c-0.31,0.42-0.65,0.81-1.04,1.17l6.2,7.36c0.86-0.72,1.65-1.53,2.36-2.41v-0.02L25.74,33.69z"/>
		<path class="st6" d="M2.56,24.57c-0.27,1.1-0.43,2.22-0.49,3.35l8.51,0.41c0.02-0.58,0.11-1.16,0.26-1.72L2.56,24.57z"/>
		<path class="st6" d="M34.28,19.16l-8.09,5.31c0.26,0.44,0.47,0.89,0.65,1.36l9.01-3.66C35.43,21.11,34.9,20.1,34.28,19.16z"/>
	</g>
	<g>
		<path class="st7" d="M55.41,21.08h1.72v14.79h-1.95l0.02-10.7l-4.4,8.33h-1.47l-4.43-8.22l0.02,10.59h-1.95V21.08h1.74l5.37,10.24
			L55.41,21.08z"/>
		<path class="st7" d="M68.69,31.1h-7.24c0.15,2.17,1.23,3.25,3.23,3.25c1.17,0,2.24-0.38,3.19-1.15l0.65,1.49
			c-0.48,0.41-1.06,0.73-1.76,0.96c-0.7,0.24-1.41,0.36-2.14,0.36c-1.64,0-2.93-0.47-3.87-1.41c-0.94-0.94-1.42-2.23-1.42-3.88
			c0-1.05,0.21-1.98,0.62-2.79c0.41-0.81,0.99-1.44,1.74-1.89s1.6-0.67,2.55-0.67c1.38,0,2.47,0.45,3.26,1.34
			c0.79,0.9,1.19,2.13,1.19,3.71V31.1z M62.35,27.7c-0.48,0.51-0.77,1.24-0.87,2.19h5.39c-0.04-0.95-0.28-1.68-0.72-2.19
			s-1.06-0.77-1.86-0.77C63.47,26.93,62.83,27.18,62.35,27.7z"/>
		<path class="st7" d="M70.45,21.06h2.43v2.2h-2.43V21.06z M70.6,35.87V25.63h2.12v10.24H70.6z"/>
		<path class="st7" d="M90.44,29.51v6.36h-2.12v-6.27c0-0.87-0.15-1.5-0.45-1.9s-0.79-0.6-1.46-0.6c-0.77,0-1.38,0.27-1.82,0.8
			c-0.45,0.53-0.67,1.26-0.67,2.18v5.79H81.8v-6.27c0-0.87-0.15-1.5-0.46-1.9c-0.31-0.4-0.79-0.6-1.45-0.6
			c-0.78,0-1.4,0.27-1.85,0.8c-0.45,0.53-0.67,1.26-0.67,2.18v5.79h-2.12V25.63h2.08v1.55c0.32-0.57,0.75-1.02,1.3-1.33
			s1.17-0.47,1.87-0.47c1.58,0,2.61,0.66,3.08,1.97c0.32-0.62,0.78-1.1,1.38-1.45s1.28-0.52,2.03-0.52
			C89.29,25.38,90.44,26.76,90.44,29.51z"/>
		<path class="st7" d="M100.25,26.41c0.66,0.69,1,1.73,1,3.12v6.33h-2.03v-1.7c-0.27,0.6-0.66,1.06-1.19,1.37s-1.14,0.47-1.84,0.47
			c-0.67,0-1.29-0.14-1.85-0.41c-0.56-0.27-1-0.65-1.31-1.14c-0.31-0.49-0.47-1.04-0.47-1.64c0-0.74,0.19-1.33,0.58-1.75
			c0.38-0.43,1.02-0.73,1.91-0.91s2.11-0.27,3.66-0.27h0.48v-0.61c0-0.78-0.16-1.35-0.49-1.7c-0.33-0.35-0.86-0.52-1.6-0.52
			c-1.16,0-2.32,0.36-3.48,1.07l-0.63-1.49c0.55-0.38,1.21-0.68,1.98-0.91c0.78-0.23,1.52-0.35,2.23-0.35
			C98.57,25.38,99.58,25.72,100.25,26.41z M98.45,33.65c0.49-0.52,0.73-1.2,0.73-2.02v-0.54h-0.38c-1.09,0-1.93,0.05-2.52,0.15
			c-0.59,0.1-1.01,0.26-1.26,0.49c-0.25,0.23-0.38,0.56-0.38,1c0,0.49,0.18,0.9,0.53,1.23c0.36,0.33,0.81,0.49,1.37,0.49
			C97.33,34.44,97.96,34.18,98.45,33.65z"/>
		<path class="st7" d="M112.91,29.51v6.36h-2.12v-6.25c0-0.87-0.17-1.5-0.51-1.91s-0.88-0.61-1.6-0.61c-0.85,0-1.54,0.27-2.06,0.8
			s-0.78,1.25-0.78,2.14v5.83h-2.12V25.63h2.08v1.64c0.34-0.62,0.8-1.08,1.41-1.41c0.6-0.32,1.28-0.48,2.03-0.48
			C111.68,25.38,112.91,26.76,112.91,29.51z"/>
		<path class="st7" d="M124.57,29.51v6.36h-2.12v-6.25c0-0.87-0.17-1.5-0.51-1.91c-0.34-0.41-0.88-0.61-1.6-0.61
			c-0.85,0-1.54,0.27-2.06,0.8c-0.52,0.53-0.78,1.25-0.78,2.14v5.83h-2.12V25.63h2.08v1.64c0.34-0.62,0.8-1.08,1.41-1.41
			c0.6-0.32,1.28-0.48,2.03-0.48C123.34,25.38,124.57,26.76,124.57,29.51z"/>
		<path class="st7" d="M132.41,35.87V21.08h2.16v12.98h7.17v1.8H132.41z"/>
		<path class="st7" d="M150.54,26.41c0.66,0.69,1,1.73,1,3.12v6.33h-2.04v-1.7c-0.27,0.6-0.66,1.06-1.18,1.37s-1.14,0.47-1.84,0.47
			c-0.67,0-1.29-0.14-1.85-0.41c-0.56-0.27-1-0.65-1.31-1.14c-0.32-0.49-0.47-1.04-0.47-1.64c0-0.74,0.19-1.33,0.58-1.75
			s1.02-0.73,1.91-0.91c0.89-0.18,2.11-0.27,3.66-0.27h0.48v-0.61c0-0.78-0.17-1.35-0.49-1.7c-0.33-0.35-0.86-0.52-1.6-0.52
			c-1.16,0-2.32,0.36-3.48,1.07l-0.63-1.49c0.54-0.38,1.21-0.68,1.98-0.91c0.78-0.23,1.52-0.35,2.23-0.35
			C148.86,25.38,149.88,25.72,150.54,26.41z M148.75,33.65c0.49-0.52,0.73-1.2,0.73-2.02v-0.54h-0.38c-1.09,0-1.93,0.05-2.52,0.15
			c-0.59,0.1-1.01,0.26-1.26,0.49s-0.38,0.56-0.38,1c0,0.49,0.18,0.9,0.54,1.23c0.36,0.33,0.81,0.49,1.37,0.49
			C147.63,34.44,148.26,34.18,148.75,33.65z"/>
		<path class="st7" d="M153.37,34.71l0.65-1.53c1.05,0.81,2.27,1.22,3.67,1.22c0.69,0,1.21-0.12,1.57-0.35s0.55-0.56,0.55-0.98
			c0-0.36-0.12-0.65-0.37-0.86c-0.25-0.21-0.67-0.38-1.27-0.52l-1.7-0.38c-0.91-0.21-1.59-0.55-2.06-1.03
			c-0.46-0.48-0.69-1.08-0.69-1.8c0-0.92,0.37-1.67,1.12-2.24c0.75-0.57,1.73-0.86,2.95-0.86c0.73,0,1.42,0.12,2.08,0.35
			s1.22,0.56,1.7,0.98l-0.65,1.49c-1.01-0.8-2.05-1.2-3.12-1.2c-0.64,0-1.15,0.13-1.52,0.38c-0.37,0.25-0.56,0.59-0.56,1.03
			c0,0.35,0.12,0.63,0.35,0.85c0.23,0.22,0.6,0.38,1.1,0.49l1.74,0.4c0.99,0.22,1.72,0.57,2.18,1.04c0.46,0.47,0.69,1.08,0.69,1.84
			c0,0.92-0.38,1.65-1.12,2.19c-0.75,0.54-1.76,0.81-3.03,0.81C155.85,36.01,154.43,35.58,153.37,34.71z"/>
		<path class="st7" d="M172.48,31.1h-7.24c0.15,2.17,1.23,3.25,3.23,3.25c1.17,0,2.24-0.38,3.19-1.15l0.65,1.49
			c-0.48,0.41-1.06,0.73-1.76,0.96c-0.7,0.24-1.41,0.36-2.14,0.36c-1.64,0-2.93-0.47-3.87-1.41c-0.94-0.94-1.42-2.23-1.42-3.88
			c0-1.05,0.21-1.98,0.62-2.79c0.41-0.81,0.99-1.44,1.74-1.89s1.6-0.67,2.55-0.67c1.38,0,2.47,0.45,3.26,1.34
			c0.79,0.9,1.19,2.13,1.19,3.71V31.1z M166.13,27.7c-0.48,0.51-0.77,1.24-0.87,2.19h5.39c-0.04-0.95-0.28-1.68-0.72-2.19
			s-1.06-0.77-1.86-0.77C167.26,26.93,166.61,27.18,166.13,27.7z"/>
		<path class="st7" d="M180.61,27.16l-1.28,0.13c-1.01,0.1-1.73,0.41-2.17,0.92c-0.44,0.52-0.66,1.17-0.66,1.97v5.68h-2.12V25.63
			h2.05v1.78c0.55-1.2,1.66-1.87,3.34-1.99l0.69-0.04L180.61,27.16z"/>
		<path class="st7" d="M180.89,34.71l0.65-1.53c1.05,0.81,2.27,1.22,3.67,1.22c0.69,0,1.21-0.12,1.57-0.35s0.55-0.56,0.55-0.98
			c0-0.36-0.12-0.65-0.37-0.86c-0.25-0.21-0.67-0.38-1.27-0.52l-1.7-0.38c-0.91-0.21-1.59-0.55-2.06-1.03
			c-0.46-0.48-0.69-1.08-0.69-1.8c0-0.92,0.37-1.67,1.12-2.24c0.75-0.57,1.73-0.86,2.95-0.86c0.73,0,1.42,0.12,2.08,0.35
			s1.22,0.56,1.7,0.98l-0.65,1.49c-1.01-0.8-2.05-1.2-3.12-1.2c-0.64,0-1.15,0.13-1.52,0.38c-0.37,0.25-0.56,0.59-0.56,1.03
			c0,0.35,0.12,0.63,0.35,0.85c0.23,0.22,0.6,0.38,1.1,0.49l1.74,0.4c0.99,0.22,1.72,0.57,2.18,1.04c0.46,0.47,0.69,1.08,0.69,1.84
			c0,0.92-0.38,1.65-1.12,2.19c-0.75,0.54-1.76,0.81-3.03,0.81C183.37,36.01,181.95,35.58,180.89,34.71z"/>
	</g>
</g>
</svg>
