<?xml version="1.0" encoding="UTF-8" standalone="no"?>
<svg
   id="Layer_1"
   data-name="Layer 1"
   viewBox="0 0 223.26 177.95"
   version="1.1"
   sodipodi:docname="SVG.svg"
   inkscape:version="1.1.1 (3bf5ae0d25, 2021-09-20)"
   xmlns:inkscape="http://www.inkscape.org/namespaces/inkscape"
   xmlns:sodipodi="http://sodipodi.sourceforge.net/DTD/sodipodi-0.dtd"
   xmlns="http://www.w3.org/2000/svg"
   xmlns:svg="http://www.w3.org/2000/svg">
  <sodipodi:namedview
     id="namedview41"
     pagecolor="#ffffff"
     bordercolor="#666666"
     borderopacity="1.0"
     inkscape:pageshadow="2"
     inkscape:pageopacity="0.0"
     inkscape:pagecheckerboard="0"
     showgrid="false"
     inkscape:zoom="4.6754707"
     inkscape:cx="111.53957"
     inkscape:cy="54.860786"
     inkscape:window-width="1920"
     inkscape:window-height="1017"
     inkscape:window-x="-8"
     inkscape:window-y="-8"
     inkscape:window-maximized="1"
     inkscape:current-layer="Layer_1" />
  <defs
     id="defs4">
    <style
       id="style2">.cls-1{fill:#3c3c3c;}</style>
  </defs>
  <path
     d="M 116.89084,80.247701 V 5.812846 a 5.2690025,5.2690025 0 0 0 -5.269,-5.26900253 v 0 A 5.2526898,5.2526898 0 0 0 106.36915,5.812846 v 74.434855 a 14.681431,14.681431 0 0 1 -6.916583,12.430278 23.06616,23.06616 0 1 0 24.469053,0.09788 14.909809,14.909809 0 0 1 -7.03078,-12.528155 z"
     id="path34"
     style="stroke-width:1.63127" />
  <path
     class="cls-1"
     d="m 132.22478,55.778649 -8.15635,25.447814 a 32.625402,32.625402 0 0 1 10.16282,6.525081 L 151.80002,66.479781 A 59.068291,59.068291 0 0 0 132.22478,55.778649 Z M 82.144787,62.30373 A 59.427171,59.427171 0 0 0 66.027838,77.52348 l 19.363179,14.028923 a 33.131096,33.131096 0 0 1 9.99968,-8.547855 z m 62.706023,49.8353 a 33.294223,33.294223 0 0 1 -2.0554,11.51677 l 26.50814,10.42381 a 58.986728,58.986728 0 0 0 4.15974,-21.82639 v -0.16313 z m -65.250803,9.08617 -22.837783,5.9052 a 59.166167,59.166167 0 0 0 9.510305,20.12987 l 19.493678,-14.2573 a 32.85378,32.85378 0 0 1 -6.14989,-11.76145 z m 44.468423,21.74483 a 33.147409,33.147409 0 0 1 -12.03877,2.4306 l -1.63127,26.10032 c 1.20714,0 2.43059,0.11419 3.63773,0.11419 v 0 a 59.329294,59.329294 0 0 0 18.3681,-2.90366 z"
     id="path36"
     style="stroke-width:1.63127" />
  <path
     class="cls-1"
     d="m 172.37034,74.146751 -32.08708,21.043384 a 33.082158,33.082158 0 0 1 2.59372,5.415815 L 178.61811,86.071335 A 70.894999,70.894999 0 0 0 172.37034,74.146751 Z M 46.583098,95.630578 A 68.513345,68.513345 0 0 0 44.641887,108.8928 l 33.73467,1.63127 a 31.287761,31.287761 0 0 1 1.04401,-6.81871 z m 91.905762,36.132632 a 32.755904,32.755904 0 0 1 -4.1108,4.64912 l 24.56693,29.16711 a 70.144615,70.144615 0 0 0 9.36349,-9.55924 v -0.0816 z m -42.527213,9.78762 -18.66173,29.86856 a 68.513345,68.513345 0 0 0 12.05508,5.98676 L 102.0626,144.0793 a 32.266523,32.266523 0 0 1 -6.100953,-2.59372 z"
     id="path38"
     style="stroke-width:1.63127" />
</svg>
