<?xml version="1.0" encoding="utf-8"?>
<!-- Generator: Adobe Illustrator 26.3.0, SVG Export Plug-In . SVG Version: 6.00 Build 0)  -->
<svg version="1.1" id="Layer_1" xmlns="http://www.w3.org/2000/svg" xmlns:xlink="http://www.w3.org/1999/xlink" x="0px" y="0px"
	 viewBox="0 0 106.18 36.37" style="enable-background:new 0 0 106.18 36.37;" xml:space="preserve">
<style type="text/css">
	.st0{fill:#3D3D3D;}
	.st1{fill:#010101;}
	.st2{fill:#805C37;}
	.st3{fill:#B09F8E;}
	.st4{fill:#9F7F5F;}
	.st5{fill:#725131;}
	.st6{fill:#8B6848;}
	.st7{fill:#A9937B;}
</style>
<g>
	<g>
		<path class="st0" d="M43.38,16.3h1.5v12.86h-1.7l0.02-9.3l-3.83,7.24h-1.28l-3.85-7.15l0.02,9.21h-1.7V16.3h1.51l4.67,8.9
			L43.38,16.3z"/>
		<path class="st0" d="M54.92,25.02h-6.29c0.13,1.89,1.07,2.83,2.81,2.83c1.02,0,1.95-0.33,2.77-1l0.57,1.3
			c-0.41,0.35-0.92,0.63-1.53,0.84c-0.61,0.21-1.23,0.31-1.86,0.31c-1.42,0-2.54-0.41-3.37-1.22c-0.82-0.81-1.23-1.94-1.23-3.38
			c0-0.91,0.18-1.72,0.54-2.43c0.36-0.71,0.86-1.25,1.51-1.64c0.65-0.39,1.39-0.58,2.22-0.58c1.2,0,2.15,0.39,2.84,1.17
			c0.69,0.78,1.03,1.85,1.03,3.23V25.02z M49.41,22.06c-0.42,0.44-0.67,1.08-0.76,1.91h4.69c-0.04-0.83-0.25-1.46-0.63-1.91
			c-0.38-0.44-0.92-0.67-1.62-0.67C50.39,21.39,49.83,21.62,49.41,22.06z"/>
		<path class="st0" d="M56.46,16.29h2.12v1.92h-2.12V16.29z M56.59,29.17v-8.9h1.84v8.9H56.59z"/>
		<path class="st0" d="M73.84,23.64v5.53H72v-5.46c0-0.75-0.13-1.3-0.39-1.65c-0.26-0.35-0.68-0.52-1.27-0.52
			c-0.67,0-1.2,0.23-1.59,0.69c-0.39,0.46-0.58,1.09-0.58,1.9v5.04h-1.84v-5.46c0-0.75-0.13-1.3-0.4-1.65s-0.69-0.52-1.26-0.52
			c-0.68,0-1.22,0.23-1.61,0.69c-0.39,0.46-0.58,1.09-0.58,1.9v5.04h-1.84v-8.9h1.81v1.35c0.28-0.5,0.66-0.88,1.13-1.16
			c0.47-0.27,1.02-0.41,1.62-0.41c1.37,0,2.27,0.57,2.68,1.71c0.28-0.53,0.68-0.95,1.2-1.26c0.52-0.3,1.11-0.46,1.77-0.46
			C72.85,20.04,73.84,21.24,73.84,23.64z"/>
		<path class="st0" d="M82.37,20.94c0.58,0.6,0.87,1.5,0.87,2.72v5.51h-1.77v-1.48c-0.23,0.52-0.57,0.92-1.03,1.19
			c-0.46,0.27-0.99,0.41-1.6,0.41c-0.58,0-1.12-0.12-1.61-0.36c-0.49-0.24-0.87-0.57-1.14-0.99c-0.27-0.42-0.41-0.9-0.41-1.42
			c0-0.64,0.17-1.15,0.5-1.52c0.33-0.37,0.89-0.63,1.66-0.79s1.83-0.24,3.18-0.24h0.42v-0.53c0-0.68-0.14-1.17-0.43-1.48
			c-0.29-0.3-0.75-0.46-1.4-0.46c-1.01,0-2.02,0.31-3.03,0.93l-0.55-1.3c0.47-0.33,1.05-0.59,1.72-0.79c0.67-0.2,1.32-0.3,1.94-0.3
			C80.91,20.04,81.79,20.34,82.37,20.94z M80.81,27.24c0.42-0.46,0.64-1.04,0.64-1.76v-0.47h-0.33c-0.95,0-1.68,0.04-2.19,0.13
			c-0.51,0.09-0.88,0.23-1.09,0.43c-0.22,0.2-0.33,0.49-0.33,0.87c0,0.43,0.16,0.78,0.47,1.07c0.31,0.29,0.71,0.43,1.19,0.43
			C79.84,27.93,80.39,27.7,80.81,27.24z"/>
		<path class="st0" d="M93.38,23.64v5.53h-1.84v-5.44c0-0.75-0.15-1.31-0.45-1.66c-0.3-0.35-0.76-0.53-1.4-0.53
			c-0.74,0-1.34,0.23-1.79,0.69c-0.45,0.46-0.68,1.08-0.68,1.86v5.07h-1.84v-8.9h1.81v1.42c0.29-0.54,0.7-0.94,1.22-1.22
			c0.52-0.28,1.11-0.42,1.77-0.42C92.32,20.04,93.38,21.24,93.38,23.64z"/>
		<path class="st0" d="M103.52,23.64v5.53h-1.84v-5.44c0-0.75-0.15-1.31-0.45-1.66c-0.3-0.35-0.76-0.53-1.4-0.53
			c-0.74,0-1.34,0.23-1.79,0.69c-0.45,0.46-0.68,1.08-0.68,1.86v5.07h-1.84v-8.9h1.81v1.42c0.29-0.54,0.7-0.94,1.22-1.22
			c0.52-0.28,1.11-0.42,1.77-0.42C102.46,20.04,103.52,21.24,103.52,23.64z"/>
	</g>
	<g>
		<path id="path34_6_" class="st1" d="M15.73,16.6V3.13c0-0.53-0.43-0.95-0.95-0.95l0,0c-0.53,0-0.95,0.43-0.95,0.95c0,0,0,0,0,0
			V16.6c0,0.92-0.47,1.77-1.25,2.25c-1.96,1.22-2.56,3.79-1.35,5.75s3.79,2.56,5.75,1.35s2.56-3.79,1.35-5.75
			c-0.33-0.54-0.78-0.99-1.32-1.33C16.22,18.38,15.74,17.53,15.73,16.6z"/>
		<path class="st2" d="M17.03,27.96c-0.69,0.28-1.43,0.43-2.18,0.44l-0.29,4.73c0.22,0,0.44,0.02,0.66,0.02
			c1.13,0,2.25-0.18,3.32-0.52L17.03,27.96z"/>
		<path class="st3" d="M8.98,24.03L8.98,24.03l-4.14,1.06c0.34,1.31,0.92,2.55,1.72,3.64l3.53-2.58C9.58,25.53,9.2,24.8,8.98,24.03z
			"/>
		<path class="st4" d="M20.79,22.38c0,0.71-0.12,1.42-0.37,2.08l4.8,1.89c0.5-1.26,0.75-2.6,0.75-3.95v-0.03L20.79,22.38z"/>
		<path class="st4" d="M9.44,13.36c-1.14,0.72-2.13,1.66-2.92,2.75l3.5,2.54c0.49-0.63,1.11-1.15,1.81-1.54L9.44,13.36z"/>
		<path class="st3" d="M18.51,12.18l-1.48,4.6c0.68,0.28,1.3,0.68,1.84,1.18l3.18-3.85C21,13.25,19.8,12.59,18.51,12.18z"/>
		<path class="st5" d="M11.94,27.69v0.01l-3.38,5.41c0.69,0.43,1.42,0.79,2.18,1.08l2.3-6.03C12.66,28.04,12.29,27.88,11.94,27.69z"
			/>
		<path class="st6" d="M19.64,25.93c-0.22,0.3-0.47,0.58-0.74,0.84l4.45,5.28c0.61-0.52,1.18-1.1,1.69-1.73v-0.02L19.64,25.93z"/>
		<path class="st7" d="M3,19.39c-0.19,0.79-0.31,1.59-0.35,2.4l6.11,0.29c0.02-0.42,0.08-0.83,0.19-1.23L3,19.39z"/>
		<path class="st7" d="M25.77,15.5l-5.81,3.81c0.18,0.31,0.34,0.64,0.47,0.98l6.47-2.63C26.6,16.9,26.22,16.18,25.77,15.5z"/>
	</g>
</g>
</svg>
