<?xml version="1.0" encoding="utf-8"?>
<!-- Generator: Adobe Illustrator 26.3.0, SVG Export Plug-In . SVG Version: 6.00 Build 0)  -->
<svg version="1.1" id="Layer_1" xmlns="http://www.w3.org/2000/svg" xmlns:xlink="http://www.w3.org/1999/xlink" x="0px" y="0px"
	 viewBox="0 0 37.13 47.86" style="enable-background:new 0 0 37.13 47.86;" xml:space="preserve">
<style type="text/css">
	.st0{fill:#010101;}
	.st1{fill:#805C37;}
	.st2{fill:#B09F8E;}
	.st3{fill:#9F7F5F;}
	.st4{fill:#725131;}
	.st5{fill:#8B6848;}
	.st6{fill:#A9937B;}
</style>
<g>
	<path id="path34_4_" class="st0" d="M19.89,21.73V2.96c0-0.73-0.59-1.33-1.33-1.33l0,0c-0.73,0-1.32,0.59-1.32,1.32c0,0,0,0,0,0
		v18.77c0,1.28-0.66,2.46-1.74,3.14c-2.73,1.69-3.57,5.28-1.88,8.01s5.28,3.57,8.01,1.88s3.57-5.28,1.88-8.01
		c-0.46-0.75-1.09-1.38-1.84-1.85C20.58,24.21,19.91,23.02,19.89,21.73z"/>
	<path class="st1" d="M21.7,37.55c-0.96,0.39-1.99,0.6-3.04,0.61l-0.41,6.59c0.31,0,0.61,0.03,0.92,0.03c1.57,0,3.13-0.25,4.63-0.73
		L21.7,37.55z"/>
	<path class="st2" d="M10.49,32.07L10.49,32.07l-5.76,1.48c0.47,1.83,1.29,3.55,2.4,5.08l4.92-3.59
		C11.33,34.17,10.8,33.16,10.49,32.07z"/>
	<path class="st3" d="M26.95,29.77c0,1-0.17,1.98-0.52,2.9l6.68,2.63c0.7-1.75,1.05-3.62,1.05-5.51v-0.04L26.95,29.77z"/>
	<path class="st3" d="M11.13,17.21c-1.59,1.01-2.97,2.31-4.07,3.84l4.88,3.54c0.69-0.88,1.55-1.61,2.52-2.15L11.13,17.21z"/>
	<path class="st2" d="M23.76,15.56l-2.06,6.41c0.95,0.39,1.82,0.95,2.56,1.65l4.44-5.37C27.24,17.05,25.56,16.14,23.76,15.56z"/>
	<path class="st4" d="M14.62,37.17v0.02l-4.71,7.53c0.96,0.6,1.98,1.11,3.04,1.5l3.2-8.4C15.62,37.67,15.1,37.45,14.62,37.17z"/>
	<path class="st5" d="M25.35,34.72c-0.31,0.42-0.65,0.81-1.04,1.17l6.2,7.36c0.86-0.72,1.65-1.53,2.36-2.41v-0.02L25.35,34.72z"/>
	<path class="st6" d="M2.16,25.61c-0.27,1.1-0.43,2.22-0.49,3.35l8.51,0.41c0.02-0.58,0.11-1.16,0.26-1.72L2.16,25.61z"/>
	<path class="st6" d="M33.89,20.19L25.8,25.5c0.26,0.44,0.47,0.89,0.65,1.36l9.01-3.66C35.04,22.15,34.51,21.14,33.89,20.19z"/>
</g>
</svg>
